<?xml version="1.0" encoding="UTF-8" standalone="no"?>
<svg width="20px" height="26px" viewBox="0 0 20 26" version="1.1" xmlns="http://www.w3.org/2000/svg" xmlns:xlink="http://www.w3.org/1999/xlink">
    <defs></defs>
    <g id="Test" stroke="none" stroke-width="1" fill="none" fill-rule="evenodd">
        <g id="Test-example---incorrect" transform="translate(-1141.000000, -642.000000)" fill="#FF2E47">
            <g id="Button-group" transform="translate(115.000000, 517.000000)">
                <g id="Button-Copy-3" transform="translate(10.000000, 98.000000)">
                    <path d="M1035.40723,28.9824219 C1034.25618,30.4433667 1033.12452,31.893222 1032.01221,33.3320312 C1030.8999,34.7708405 1029.80144,36.215162 1028.7168,37.6650391 C1029.29232,38.838222 1029.8789,40.0639585 1030.47656,41.3422852 C1031.07422,42.6206119 1031.68847,43.9791595 1032.31934,45.4179688 L1031.83789,45.8164062 L1031.87109,46.1650391 C1031.77148,46.2646489 1031.66357,46.3559566 1031.54736,46.4389648 C1031.43115,46.5219731 1031.30111,46.5966794 1031.15723,46.6630859 L1031.33984,47.2109375 C1031.2181,47.4322928 1031.06315,47.6121412 1030.875,47.7504883 C1030.68685,47.8888353 1030.4821,47.980143 1030.26074,48.0244141 C1030.02832,48.0133463 1029.53304,47.4682671 1028.7749,46.3891602 C1028.01676,45.3100532 1027.01238,43.7246198 1025.76172,41.6328125 C1024.57747,43.2597738 1023.4292,44.9365148 1022.31689,46.6630859 C1021.20458,48.3896571 1020.12826,50.1715403 1019.08789,52.0087891 C1018.82226,52.1416022 1018.54557,52.2412106 1018.25781,52.3076172 C1017.97005,52.3740238 1017.67123,52.4072266 1017.36133,52.4072266 L1017.16211,52.4072266 C1016.84114,52.1083969 1016.58382,51.7902035 1016.39014,51.4526367 C1016.19645,51.1150699 1016.09961,50.8466807 1016.09961,50.6474609 C1016.09961,50.5367833 1016.11621,50.4039721 1016.14941,50.2490234 C1016.18262,50.0940747 1016.23242,49.9003918 1016.29883,49.6679688 L1016,49.1201172 C1016.39844,48.1129507 1017.24234,46.6935313 1018.53174,44.8618164 C1019.82113,43.0301015 1021.57258,40.7418757 1023.78613,37.9970703 C1023.34342,36.8238874 1022.89795,35.6009178 1022.44971,34.328125 C1022.00146,33.0553322 1021.50619,31.6054769 1020.96387,29.9785156 C1021.10775,29.6686182 1021.26269,29.4195973 1021.42871,29.2314453 C1021.59473,29.0432933 1021.74414,28.9492188 1021.87695,28.9492188 C1021.9655,28.9492188 1022.05404,28.9741208 1022.14258,29.0239258 C1022.23112,29.0737307 1022.32519,29.1539708 1022.4248,29.2646484 C1022.49121,29.1982419 1022.56868,29.1456708 1022.65723,29.1069336 C1022.74577,29.0681964 1022.83984,29.0488281 1022.93945,29.0488281 L1023.07227,29.0488281 C1023.14974,28.9381505 1023.23275,28.8440759 1023.32129,28.7666016 C1023.40983,28.6891272 1023.50944,28.6171878 1023.62012,28.5507812 L1023.65332,28.5507812 C1023.97429,28.5507812 1024.583,29.5025946 1025.47949,31.40625 C1026.02181,32.5572974 1026.47558,33.4980432 1026.84082,34.2285156 C1027.49382,33.4759077 1028.33496,32.4853577 1029.36426,31.2568359 C1031.33432,28.91047 1032.41894,27.7373047 1032.61816,27.7373047 C1032.73991,27.7373047 1032.89762,27.7898758 1033.09131,27.8950195 C1033.28499,28.0001633 1033.51465,28.1578766 1033.78027,28.3681641 L1034.52734,27.6542969 C1034.70443,27.8424489 1034.86768,28.0471994 1035.01709,28.2685547 C1035.1665,28.48991 1035.29655,28.7278633 1035.40723,28.9824219 L1035.40723,28.9824219 Z" id="✗"></path>
                </g>
            </g>
        </g>
    </g>
</svg>