<svg xmlns="http://www.w3.org/2000/svg" width="30" height="21" viewBox="0 6 30 21" enable-background="new 0 6 30 21"><g><path fill="#1A1919" d="M4.5 19.8v-.9c0-.8.2-1.5.5-2.1s1-1.2 1.9-1.9c.9-.6 1.5-1.2 1.8-1.5s.4-.8.4-1.3-.2-1-.6-1.3-1-.4-1.7-.4c-1.3 0-2.7.4-4.3 1.2l-1.4-2.8c1.9-1.1 3.9-1.6 6-1.6 1.7 0 3.1.4 4.2 1.3s1.5 2 1.5 3.4c0 .9-.2 1.7-.6 2.4s-1.2 1.4-2.4 2.3c-.8.6-1.3 1.1-1.5 1.4s-.3.7-.3 1.2v.8h-3.5zm-.4 4.4c0-.7.2-1.2.6-1.6s.9-.6 1.6-.6c.7 0 1.3.2 1.7.6s.6.9.6 1.6c0 .7-.2 1.2-.6 1.6-.4.4-.9.6-1.6.6-.7 0-1.3-.2-1.7-.6-.4-.4-.6-.9-.6-1.6z" enable-background="new"/><path fill="#D0011B" d="M29.9 16.2l-6.8 5.8v-4.6h-7.8v-2.5h7.8v-4.6l6.8 5.9z"/></g></svg>