<?xml version="1.0" encoding="UTF-8" standalone="no"?>
<svg width="21px" height="19px" viewBox="0 0 21 19" version="1.1" xmlns="http://www.w3.org/2000/svg" xmlns:xlink="http://www.w3.org/1999/xlink">
    <defs></defs>
    <g id="Test" stroke="none" stroke-width="1" fill="none" fill-rule="evenodd">
        <g id="Test-example---incorrect" transform="translate(-1141.000000, -555.000000)" fill="#B8E986">
            <g id="Button-group" transform="translate(115.000000, 517.000000)">
                <g id="Button" transform="translate(10.000000, 10.000000)">
                    <path d="M1020.36565,45.6195233 L1019.74152,44.1768536 C1019.55053,43.7334777 1019.38682,43.3719612 1019.2504,43.0922934 L1018.87182,42.3249159 C1018.14196,40.8788284 1017.27909,39.8590792 1016.2832,39.2656376 C1017.44962,38.2833895 1018.48984,37.7922728 1019.40387,37.7922728 C1020.01096,37.7922728 1020.48843,38.0258943 1020.83631,38.4931443 C1021.18419,38.9603942 1021.48091,39.7703957 1021.72647,40.923173 C1023.49997,37.5603375 1028.37366,32.9094847 1029.36273,31.6271052 C1030.24948,30.4743279 1031.00832,29.7103686 1031.63928,29.3352044 C1032.27024,28.9600402 1033.10752,28.7724609 1034.15116,28.7724609 C1034.80599,28.7724609 1035.51538,28.8986506 1036.27936,29.1510338 C1034.49903,30.3174535 1032.55673,32.2341727 1030.4524,34.9012492 C1028.34807,37.5683256 1022.80763,43.0308852 1020.81585,46.6324615 C1020.57028,46.0935893 1020.42022,45.7559466 1020.36565,45.6195233 Z" id="✓-copy"></path>
                </g>
            </g>
        </g>
    </g>
</svg>